<svg width="530" height="738" viewBox="0 0 530 738" fill="none" xmlns="http://www.w3.org/2000/svg">
<path d="M203.797 62.1298L62.4197 692.012M212.787 642.469L339.529 8.97896M489.023 43.9874L357.211 718.133M125.489 290.026L451.393 355.352M96.3357 431.116L269.549 458.584M197.387 390.68L146.409 632.066M296.156 646.505L380.779 238.634" stroke="#FACC15" stroke-width="8"/>
<rect width="51.3141" height="444.028" rx="10" transform="matrix(0.979555 0.201178 -0.197569 0.980289 358.832 221.707)" fill="#FACC15"/>
<rect width="51.6613" height="361.023" rx="10" transform="matrix(-0.0688091 0.99763 -0.997497 -0.0707106 403.029 647.177)" fill="#FACC15"/>
<rect width="34.087" height="282.435" rx="10" transform="matrix(0.979555 0.201178 -0.197569 0.980289 184.375 372.445)" fill="#FACC15"/>
<rect width="34.087" height="94.6167" rx="10" transform="matrix(0.979555 0.201178 -0.197569 0.980289 136.459 554.272)" fill="#FACC15"/>
<rect width="34.087" height="141.711" rx="10" transform="matrix(0.979555 0.201178 -0.197569 0.980289 294.379 510.352)" fill="#FACC15"/>
</svg>
