<svg width="594" height="331" viewBox="0 0 594 331" fill="none" xmlns="http://www.w3.org/2000/svg">
<path d="M291.097 171.341L298.096 174.098L305.651 178.158L307.839 184.652C307.839 184.652 308.343 187.883 305.87 192.324C303.396 196.765 302.807 196.749 298.634 198.571C294.461 200.393 290.372 198.998 290.372 198.998L283.911 198.186C283.911 198.186 280.95 198.752 277.484 196.086C274.017 193.421 271.78 188.857 271.78 188.857L268.381 183.619L264.427 177.079L264.73 165.501L269.139 154.674L275.196 148.397L282.365 144.722L293.655 141.156L308.967 141.557L328.098 153.644L337.353 160.322L347.263 164.444L356.602 167.907L373.681 168.354L388.993 168.755L400.047 174.193L404.59 180.749L408.477 189.862L408.224 199.51L408.073 205.299L399.239 205.067L385.694 204.713L372.687 206.303L360.252 208.552L348.305 214.676L338.68 222.147L325.993 234.044L308.476 250.321L292.323 259.552L279.265 263.072L266.309 262.733L255.759 260.526L241.76 255.01L230.806 245.712L221.013 237.088L210.75 223.947L194.176 204.203L183.896 191.705L172.387 181.105L157.277 172.986L147.989 167.593L136.21 167.285L127.427 165.124L139.626 149.352L156.47 136.277L173.835 125.789L192.226 121.122L206.949 121.507L224.028 121.954L241.696 122.417L256.554 117.657L266.229 108.256L276.476 99.5129L289.618 92.7769L301.985 93.1007L312.064 90.7901M312.064 90.7901L316.624 96.7023L325.71 109.813L338.414 119.801L346.574 123.232L355.997 123.479L364.831 123.711L374.927 120.757L386.335 112.688L394.261 102.597L397.325 95.5973M312.064 90.7901L313.596 77.3136L320.377 65.9055L330.541 60.3789L340.031 58.0528L349.975 60.8878L355.124 66.8154L357.26 75.2388L354.736 81.6091L349.335 85.3296L342.789 87.7328M397.325 95.5973L399.275 91.1429L402.776 69.9942L403.281 50.698L398.486 31.263L390.629 16.2534L377.858 8.83886L362.63 5.22188L346.14 4.79008L330.744 7.60515L318.881 10.5127L306.951 15.9932L295.526 24.705L287.634 33.5094L277.959 42.9108L266.618 48.4066L254.721 52.6006L242.354 52.2768L227.076 50.5894L208.819 50.1114L193.507 49.7104L185.228 50.7809L176.916 53.1378L170.96 55.5564L161.957 61.7572L152.265 71.8017L142.001 81.1876L129.313 93.0847L119.066 101.827L110.148 104.812L100.086 106.48L78.245 107.839L55.7818 110.469L36.1621 117.035L22.9195 127.63L13.2609 136.388L6.4796 147.796L22.3131 150.786L33.4184 154.295L43.2954 159.702L54.2828 167.714L63.4192 178.895L78.2427 197.949L89.6506 212.408L97.6765 220.986L104.037 225.658L110.986 230.345L128.468 237.883L144.79 244.747L161.666 252.913L170.349 258.933L179.536 268.184L192.121 282.674L204.791 293.948L222.156 305.988L234.927 313.403L254.142 322.273L272.315 325.968L294.189 323.322L316.198 315.531L331.813 304.354L348.068 291.263L366.779 274.375L383.505 265.802L393.617 262.205L402.519 259.863L421.953 260.372L447.277 261.035L462.639 259.507L470.935 257.793L479.247 255.436L492.439 246.77L511.689 231.827L521.28 225.642L533.176 221.448L545.628 218.555L556.228 218.833L567.923 222.357L577.227 227.107L585.405 229.895L589.477 231.933L588.804 212.606L584.565 194.473L574.839 183.276L559.763 173.87L542.785 169.564L522.813 167.11L506.996 163.477L492.391 158.589L481.992 150.593L472.334 136.824L460.977 120.435L447.196 106.558L429.125 99.0046L410.936 95.9537L397.325 95.5973Z" stroke="#FACC15" stroke-width="8"/>
</svg>
