<svg width="597" height="332" viewBox="0 0 597 332" fill="none" xmlns="http://www.w3.org/2000/svg">
<path d="M304.864 160.066L297.795 157.492L290.136 153.631L287.779 147.197C287.779 147.197 287.19 143.98 289.547 139.476C291.903 134.972 292.492 134.972 296.616 133.042C300.74 131.112 304.864 132.398 304.864 132.398L311.344 133.042C311.344 133.042 314.29 132.398 317.825 134.972C321.36 137.546 323.716 142.05 323.716 142.05L327.251 147.197L331.375 153.631V165.213L327.251 176.151L321.36 182.586L314.29 186.446L303.097 190.307H287.779L268.338 178.725L258.912 172.291L248.897 168.43L239.471 165.213H222.387H207.069L195.876 160.066L191.163 153.631L187.039 144.624V134.972V129.181H195.876H209.426L222.387 127.251L234.758 124.677L246.541 118.243L255.967 110.522L268.338 98.2968L285.423 81.5677L301.329 71.9163L314.29 68.0558H327.251L337.855 69.9861L351.994 75.1335L363.187 84.1414L373.202 92.506L383.807 105.375L400.891 124.677L411.495 136.902L423.278 147.197L438.595 154.918L448.021 160.066H459.804L468.64 161.996L456.858 178.082L440.363 191.594L423.278 202.532L405.015 207.679H390.287H373.202H355.529L340.801 212.827L331.375 222.478L321.36 231.486L308.399 238.564H296.027L286.012 241.137M286.012 241.137L281.299 235.347L271.873 222.478L258.912 212.827L250.665 209.61H241.239H232.402L222.387 212.827L211.193 221.191L203.535 231.486L200.655 238.564M286.012 241.137L284.834 254.649L278.353 266.231L268.338 272.022L258.912 274.596L248.897 272.022L243.595 266.231L241.239 257.867L243.595 251.432L248.897 247.572L255.378 244.998M200.655 238.564L198.822 243.068L195.876 264.301V283.604L201.178 302.906L209.426 317.705L222.387 324.783L237.704 328H254.199L269.517 324.783L281.299 321.566L293.082 315.775L304.275 306.767L311.934 297.759L321.36 288.108L332.553 282.317L344.335 277.813H356.707L372.024 279.1H390.287H405.604L413.852 277.813L422.1 275.239L427.991 272.665L436.828 266.231L446.254 255.936L456.269 246.285L468.64 234.06L478.656 225.052L487.492 221.835L497.508 219.904L519.305 217.974L541.692 214.757L561.133 207.679L574.094 196.741L583.52 187.733L590 176.151L574.094 173.578L562.9 170.361L552.885 165.213L541.692 157.492L532.266 146.554L516.949 127.894L505.166 113.739L496.918 105.375L490.438 100.871L483.369 96.3665L465.695 89.2888L449.199 82.8546L432.115 75.1335L423.278 69.3426L413.852 60.3347L400.891 46.1793L387.93 35.241L370.257 23.6594L357.296 16.5817L337.855 8.21713L319.592 5L297.795 8.21713L275.997 16.5817L260.68 28.1633L244.773 41.6753L226.511 59.0478L210.015 68.0558L200 71.9163L191.163 74.49H171.722H146.39L131.073 76.4203L122.825 78.3506L114.577 80.9243L101.616 89.9323L82.7643 105.375L73.3384 111.809L61.5559 116.313L49.1843 119.53H38.5801L26.7976 116.313L17.3716 111.809L9.12387 109.235L5 107.305L6.17825 126.608L10.8912 144.624L20.9063 155.562L36.2236 164.57L53.3082 168.43L73.3384 170.361L89.2447 173.578L103.973 178.082L114.577 185.803L124.592 199.315L136.375 215.4L150.514 228.912L168.776 235.99L187.039 238.564H200.655Z" stroke="#FACC15" stroke-width="8"/>
</svg>
